<svg xmlns="http://www.w3.org/2000/svg" xmlns:xlink="http://www.w3.org/1999/xlink" width="500" zoomAndPan="magnify" viewBox="0 0 375 374.999991" height="500" preserveAspectRatio="xMidYMid meet" version="1.0"><defs><clipPath id="7cb537f1b4"><path d="M 177.777344 175.820312 L 197.277344 175.820312 L 197.277344 199.070312 L 177.777344 199.070312 Z M 177.777344 175.820312 " clip-rule="nonzero"/></clipPath></defs><g clip-path="url(#7cb537f1b4)"><path fill="#f1efe7" d="M 189.273438 177.496094 L 179.441406 177.496094 L 179.441406 199.050781 L 177.777344 199.050781 L 177.777344 175.84375 L 189.273438 175.84375 C 191.34375 175.84375 193.292969 176.644531 194.757812 178.101562 C 196.226562 179.554688 197.03125 181.488281 197.03125 183.546875 C 197.03125 185.605469 196.226562 187.539062 194.757812 188.992188 C 193.621094 190.121094 192.191406 190.859375 190.636719 191.128906 L 188.8125 189.597656 L 189.269531 189.597656 C 192.632812 189.597656 195.367188 186.882812 195.367188 183.546875 C 195.367188 180.210938 192.632812 177.496094 189.273438 177.496094 Z M 184.964844 188.414062 L 193.136719 180.171875 L 190.753906 180.171875 L 183.535156 187.378906 L 183.535156 180.171875 L 181.867188 180.171875 L 181.867188 199.050781 L 183.535156 199.050781 L 183.535156 189.367188 L 194.726562 198.949219 L 197.277344 198.949219 Z M 184.964844 188.414062 " fill-opacity="1" fill-rule="nonzero"/></g></svg>