<svg xmlns="http://www.w3.org/2000/svg" xmlns:xlink="http://www.w3.org/1999/xlink" width="500" zoomAndPan="magnify" viewBox="0 0 375 374.999991" height="500" preserveAspectRatio="xMidYMid meet" version="1.0"><defs><clipPath id="3c4acb4240"><path d="M 118.796875 105 L 256.046875 105 L 256.046875 269.972656 L 118.796875 269.972656 Z M 118.796875 105 " clip-rule="nonzero"/></clipPath></defs><g clip-path="url(#3c4acb4240)"><path fill="#000000" d="M 199.691406 116.84375 L 130.515625 116.84375 L 130.515625 269.824219 L 118.796875 269.824219 L 118.796875 105.117188 L 199.691406 105.117188 C 214.28125 105.117188 228 110.804688 238.316406 121.132812 C 248.632812 131.457031 254.316406 145.1875 254.316406 159.789062 C 254.316406 174.390625 248.632812 188.117188 238.316406 198.445312 C 230.304688 206.460938 220.242188 211.679688 209.3125 213.613281 L 196.449219 202.726562 L 199.6875 202.726562 C 223.347656 202.726562 242.597656 183.460938 242.597656 159.785156 C 242.597656 136.105469 223.351562 116.84375 199.691406 116.84375 Z M 169.378906 194.324219 L 226.890625 135.832031 L 210.132812 135.832031 L 159.304688 186.980469 L 159.304688 135.832031 L 147.585938 135.832031 L 147.585938 269.824219 L 159.304688 269.824219 L 159.304688 201.113281 L 238.09375 269.105469 L 256.035156 269.105469 Z M 169.378906 194.324219 " fill-opacity="1" fill-rule="nonzero"/></g></svg>